<?xml version="1.0" encoding="utf-8"?>
<!-- Generator: Adobe Illustrator 22.0.1, SVG Export Plug-In . SVG Version: 6.00 Build 0)  -->
<svg version="1.1" id="Capa_1" xmlns="http://www.w3.org/2000/svg" xmlns:xlink="http://www.w3.org/1999/xlink" x="0px" y="0px"
	 viewBox="0 0 1200 1200" style="enable-background:new 0 0 1200 1200;" xml:space="preserve">
<style type="text/css">
	.st0{fill-rule:evenodd;clip-rule:evenodd;fill:#FF0000;}
	.st1{fill-rule:evenodd;clip-rule:evenodd;fill:#0071BC;}
	.st2{fill-rule:evenodd;clip-rule:evenodd;fill:#2E3192;}
	.st3{fill:#FFFFFF;}
	.st4{opacity:0.8;}
	.st5{fill:#FF0000;}
</style>
<g>
	<path class="st0" d="M634.4,935.7c98.4,0,196.9,0,295.3,0c6.3,0,6.4,0,6.4-10.5c0-54,0-107.9,0-161.9c0-98-0.2-196.1,0.1-294.1
		c0.2-64.2-18.2-110.6-51.7-143.1c-18.8-18.2-39.5-26-61.5-26c-76.4,0-152.8,0-229.2,0c-117.5,0-235.1,0-352.6,0
		c-5.5,0-5.5,0-5.5,8.9c0,153.5,0.1,307.1,0,460.7c0,49,12,88.9,34.9,120.7c17.3,24.1,37.6,37.9,60.2,43.1
		c6.7,1.5,13.4,2.1,20.2,2.1C445.4,935.7,539.9,935.7,634.4,935.7z"/>
	<path class="st1" d="M659.1,899.8c98.4,0,196.9,0,295.3,0c6.3,0,6.4,0,6.4-10.5c0-54,0-107.9,0-161.9c0-98-0.2-196.1,0.1-294.1
		c0.2-64.2-18.2-110.6-51.7-143.1c-18.8-18.2-39.5-26-61.5-26c-76.4,0-152.8,0-229.2,0c-117.5,0-235.1,0-352.6,0
		c-5.5,0-5.5,0-5.5,8.9c0,153.5,0.1,307.1,0,460.7c0,49,12,88.9,34.9,120.7c17.3,24.1,37.6,37.9,60.2,43.1
		c6.7,1.5,13.4,2.1,20.2,2.1C470.1,899.8,564.6,899.8,659.1,899.8z"/>
	<path class="st2" d="M961.4,505.2c0,41.4,0,394.2,0,394.2H425.8c0,0,362-125.9,441.6-633.1C921.2,288.8,971.4,327.1,961.4,505.2z"
		/>
	<g>
		<g>
			<path class="st3" d="M734.2,692.7c0,19.9-5.8,35.6-17.3,47.1c-11.6,11.6-27.3,17.3-47.1,17.3H467.4c-12.5,0-22.5-3.8-30.1-11.4
				c-7.6-7.6-11.4-20.2-11.4-37.8c0-9.2,1.3-18,3.8-26.3c2.5-8.3,5.4-15,8.7-20.1h178.1v-72.8H488.9c-12.5,0-22.4-3.7-29.8-11.1
				c-7.4-7.4-11.1-19.9-11.1-37.4c0-9.2,1.3-17.9,3.8-26c2.6-8.1,5.4-14.7,8.7-19.8h155.9v-64.4H470.2c-12.5,0-22.5-3.7-30.1-11.1
				c-7.6-7.4-11.4-19.8-11.4-37.4c0-9.2,1.3-18,3.8-26.3c2.5-8.3,5.4-15,8.7-20.1h228.7c19.9,0,35.6,5.8,47.1,17.3
				c11.5,11.6,17.3,27.3,17.3,47.1V692.7z"/>
		</g>
		<g class="st4">
			<g>
				<path class="st5" d="M795.4,822.7c-5.1,1.4-13.2,2.8-24.1,4.2c-11,1.4-21.8,2.1-32.5,2.1c-10.7,0-20.2-0.8-28.3-2.5
					c-8.2-1.6-15-4.5-20.6-8.7c-5.6-4.2-9.8-10-12.6-17.5c-2.8-7.5-4.2-17.2-4.2-29.4V401.7c5.1-0.9,13.3-2.2,24.5-3.8
					c11.2-1.6,21.9-2.4,32.2-2.4c10.7,0,20.2,0.8,28.3,2.4c8.1,1.6,15,4.5,20.6,8.7c5.6,4.2,9.8,10,12.6,17.5
					c2.8,7.5,4.2,17.3,4.2,29.4V822.7z"/>
			</g>
		</g>
	</g>
</g>
</svg>
