<?xml version="1.0" encoding="utf-8"?>
<!-- Generator: Adobe Illustrator 22.0.1, SVG Export Plug-In . SVG Version: 6.00 Build 0)  -->
<svg version="1.1" id="Capa_1" xmlns="http://www.w3.org/2000/svg" xmlns:xlink="http://www.w3.org/1999/xlink" x="0px" y="0px"
	 viewBox="0 0 1200 1200" style="enable-background:new 0 0 1200 1200;" xml:space="preserve">
<style type="text/css">
	.st0{fill:#808080;}
	.st1{fill:#FF0000;}
	.st2{fill-rule:evenodd;clip-rule:evenodd;fill:#FF0000;}
	.st3{fill-rule:evenodd;clip-rule:evenodd;fill:#0071BC;}
	.st4{fill-rule:evenodd;clip-rule:evenodd;fill:#2E3192;}
	.st5{fill:#FFFFFF;}
	.st6{opacity:0.8;}
	.st7{fill:#0071BC;}
</style>
<g>
	<path class="st0" d="M245.9,971.1c0-2.9,0.8-5.2,2.5-6.8c1.7-1.7,4-2.5,6.8-2.5h33.2c0.5,0.7,0.9,1.7,1.3,2.9
		c0.4,1.2,0.6,2.5,0.6,3.8c0,2.5-0.6,4.4-1.7,5.4c-1.1,1.1-2.6,1.6-4.4,1.6H263v9.3h22.6c0.5,0.7,0.9,1.7,1.3,2.9
		c0.4,1.2,0.6,2.4,0.6,3.8c0,2.5-0.5,4.4-1.6,5.4c-1.1,1.1-2.5,1.6-4.3,1.6H263v10.5h25.8c0.5,0.7,0.9,1.7,1.3,2.9
		c0.4,1.2,0.6,2.5,0.6,3.8c0,2.5-0.6,4.4-1.7,5.5c-1.1,1.1-2.6,1.7-4.4,1.7h-29.3c-2.9,0-5.2-0.8-6.8-2.5c-1.7-1.7-2.5-4-2.5-6.8
		V971.1z"/>
	<path class="st0" d="M356.1,1020.5c-0.9,0.9-2.3,1.7-4.1,2.2c-1.8,0.5-3.9,0.8-6.4,0.8c-2.5,0-4.8-0.4-7-1.1
		c-2.2-0.7-4-2.5-5.4-5.3l-9.9-20.3c-1-2.1-1.9-4-2.7-5.9c-0.8-1.8-1.7-4-2.6-6.4l-0.6,0.1c0.3,3.6,0.4,7.3,0.5,11
		c0,3.8,0.1,7.4,0.1,11.1v15.6c-0.7,0.2-1.9,0.4-3.4,0.6c-1.5,0.2-3,0.3-4.5,0.3c-1.5,0-2.8-0.1-3.9-0.3c-1.1-0.2-2.1-0.6-2.8-1.2
		c-0.7-0.6-1.3-1.4-1.7-2.5c-0.4-1-0.6-2.4-0.6-4.1v-50.2c0.9-1.3,2.4-2.3,4.3-3c1.9-0.7,4-1,6.2-1c2.5,0,4.8,0.4,7.1,1.2
		c2.2,0.8,4,2.5,5.4,5.3l10,20.3c1,2.1,1.9,4,2.7,5.9c0.8,1.8,1.7,4,2.6,6.4l0.5-0.1c-0.3-3.6-0.4-7.2-0.5-10.8
		c-0.1-3.6-0.1-7.2-0.1-10.8v-16.3c0.7-0.2,1.9-0.4,3.4-0.6c1.5-0.2,3-0.3,4.5-0.3c2.9,0,5.2,0.5,6.7,1.6c1.5,1,2.3,3.2,2.3,6.5
		V1020.5z"/>
	<path class="st0" d="M400.2,974c-5.2,0-9.1,1.6-11.9,4.7c-2.7,3.1-4.1,7.6-4.1,13.4c0,5.8,1.5,10.3,4.6,13.5
		c3,3.1,7.1,4.7,12.3,4.7c2.7,0,5.1-0.4,7-1.1c1.9-0.7,3.7-1.6,5.5-2.5c1.1,0.9,2,2.1,2.7,3.4c0.6,1.3,1,2.8,1,4.6
		c0,2.7-1.5,5.1-4.6,7c-3,1.9-7.7,2.9-13.9,2.9c-4.5,0-8.7-0.6-12.7-1.9c-4-1.3-7.4-3.2-10.3-5.9c-2.9-2.6-5.3-6-7-10
		c-1.7-4.1-2.6-8.9-2.6-14.5c0-5.2,0.8-9.8,2.5-13.8c1.6-4,3.9-7.3,6.7-10.1c2.8-2.7,6.2-4.8,10-6.2c3.8-1.4,7.9-2.1,12.3-2.1
		c6.2,0,10.9,1,14.3,3c3.4,2,5.1,4.6,5.1,7.7c0,1.7-0.4,3.2-1.3,4.5c-0.9,1.3-1.9,2.3-3,3c-1.7-1.1-3.6-2.1-5.6-2.9
		C405.1,974.4,402.8,974,400.2,974z"/>
	<path class="st0" d="M444.1,1022.2c-0.7,0.2-1.9,0.4-3.5,0.6c-1.6,0.2-3.1,0.3-4.7,0.3c-1.5,0-2.9-0.1-4.1-0.4
		c-1.2-0.2-2.2-0.7-3-1.3c-0.8-0.6-1.4-1.4-1.8-2.5c-0.4-1.1-0.6-2.5-0.6-4.2v-53c0.7-0.1,1.9-0.3,3.5-0.6c1.6-0.2,3.1-0.4,4.6-0.4
		c1.5,0,2.9,0.1,4.1,0.4c1.2,0.2,2.2,0.7,3,1.3c0.8,0.6,1.4,1.4,1.8,2.5c0.4,1.1,0.6,2.5,0.6,4.2V1022.2z"/>
	<path class="st0" d="M488.2,974c-5.2,0-9.1,1.6-11.9,4.7c-2.7,3.1-4.1,7.6-4.1,13.4c0,5.8,1.5,10.3,4.6,13.5
		c3,3.1,7.1,4.7,12.3,4.7c2.7,0,5.1-0.4,7-1.1c1.9-0.7,3.7-1.6,5.5-2.5c1.1,0.9,2,2.1,2.7,3.4c0.6,1.3,1,2.8,1,4.6
		c0,2.7-1.5,5.1-4.6,7c-3,1.9-7.7,2.9-13.9,2.9c-4.5,0-8.7-0.6-12.7-1.9c-4-1.3-7.4-3.2-10.3-5.9c-2.9-2.6-5.3-6-7-10
		c-1.7-4.1-2.6-8.9-2.6-14.5c0-5.2,0.8-9.8,2.5-13.8c1.6-4,3.9-7.3,6.7-10.1c2.8-2.7,6.2-4.8,10-6.2c3.8-1.4,7.9-2.1,12.3-2.1
		c6.2,0,10.9,1,14.3,3c3.4,2,5.1,4.6,5.1,7.7c0,1.7-0.4,3.2-1.3,4.5c-0.9,1.3-1.9,2.3-3,3c-1.7-1.1-3.6-2.1-5.6-2.9
		C493.1,974.4,490.8,974,488.2,974z"/>
	<path class="st0" d="M523.9,1022.9c-2.9,0-5.2-0.8-6.8-2.5c-1.7-1.7-2.5-4-2.5-6.8v-51.9c0.7-0.1,1.9-0.3,3.5-0.6
		c1.6-0.2,3.1-0.4,4.6-0.4c1.5,0,2.9,0.1,4.1,0.4c1.2,0.2,2.2,0.7,3,1.3c0.8,0.6,1.4,1.4,1.8,2.5c0.4,1.1,0.6,2.5,0.6,4.2v39.7h23
		c0.5,0.7,0.9,1.7,1.3,3c0.4,1.2,0.6,2.5,0.6,3.9c0,2.7-0.6,4.6-1.7,5.7c-1.1,1.1-2.6,1.7-4.5,1.7H523.9z"/>
	<path class="st0" d="M560,992c0-5.2,0.8-9.8,2.5-13.9c1.6-4,3.9-7.4,6.7-10.1c2.8-2.7,6.2-4.8,10-6.2c3.9-1.4,8-2.1,12.5-2.1
		c4.5,0,8.7,0.7,12.5,2.1c3.9,1.4,7.2,3.5,10.1,6.2c2.9,2.7,5.1,6.1,6.8,10.1c1.6,4,2.5,8.6,2.5,13.9c0,5.2-0.8,9.9-2.4,13.9
		c-1.6,4.1-3.8,7.4-6.7,10.1c-2.8,2.7-6.2,4.8-10.1,6.2c-3.9,1.4-8.1,2.1-12.7,2.1c-4.6,0-8.8-0.7-12.7-2.2c-3.9-1.4-7.2-3.5-10-6.3
		c-2.8-2.7-5-6.1-6.6-10.1C560.9,1001.8,560,997.2,560,992z M578.1,992c0,6.1,1.2,10.6,3.7,13.7c2.5,3,5.8,4.5,9.9,4.5
		c4.2,0,7.6-1.5,10-4.5c2.5-3,3.7-7.6,3.7-13.7c0-6-1.2-10.5-3.7-13.6c-2.4-3-5.8-4.5-10-4.5c-4.2,0-7.5,1.5-10,4.5
		C579.4,981.4,578.1,986,578.1,992z"/>
	<path class="st0" d="M651.3,1022.2c-0.7,0.2-1.9,0.4-3.5,0.6c-1.6,0.2-3.1,0.3-4.7,0.3c-1.5,0-2.9-0.1-4.1-0.4
		c-1.2-0.2-2.2-0.7-3-1.3c-0.8-0.6-1.4-1.4-1.8-2.5c-0.4-1.1-0.6-2.5-0.6-4.2v-47.3c0-1.4,0.4-2.5,1.2-3.3c0.8-0.8,1.8-1.4,3.2-1.9
		c2.3-0.8,4.9-1.4,7.8-1.8c2.9-0.4,5.8-0.6,8.8-0.6c9.2,0,16.3,2,21.2,5.9c4.9,4,7.3,9.3,7.3,16.1c0,3.3-0.5,6.2-1.6,8.9
		c-1,2.6-2.6,4.9-4.6,6.8c-2,1.9-4.6,3.4-7.7,4.4c-3.1,1-6.7,1.6-10.8,1.6h-7.1V1022.2z M656.5,989.9c2.8,0,5-0.7,6.5-2
		c1.5-1.3,2.3-3.3,2.3-6c0-2.5-0.8-4.5-2.4-5.9c-1.6-1.4-3.9-2.1-6.9-2.1c-1.1,0-2,0-2.7,0.1c-0.7,0-1.4,0.1-2.2,0.3v15.6H656.5z"/>
	<path class="st0" d="M691.3,971.1c0-2.9,0.8-5.2,2.5-6.8c1.7-1.7,4-2.5,6.8-2.5h33.2c0.5,0.7,0.9,1.7,1.3,2.9
		c0.4,1.2,0.6,2.5,0.6,3.8c0,2.5-0.6,4.4-1.7,5.4c-1.1,1.1-2.6,1.6-4.4,1.6h-21.2v9.3H731c0.5,0.7,0.9,1.7,1.3,2.9
		c0.4,1.2,0.6,2.4,0.6,3.8c0,2.5-0.5,4.4-1.6,5.4c-1.1,1.1-2.5,1.6-4.3,1.6h-18.5v10.5h25.8c0.5,0.7,0.9,1.7,1.3,2.9
		c0.4,1.2,0.6,2.5,0.6,3.8c0,2.5-0.6,4.4-1.7,5.5c-1.1,1.1-2.6,1.7-4.4,1.7h-29.3c-2.9,0-5.2-0.8-6.8-2.5c-1.7-1.7-2.5-4-2.5-6.8
		V971.1z M718.5,937.1c3.3,0.3,5.6,1.1,7,2.4c1.4,1.3,2.1,2.8,2.1,4.6c0,1.9-0.6,3.5-1.7,4.6c-1.1,1.1-2.8,2.2-5.2,3.1l-13.8,5.4
		c-1.9-0.4-3.5-1.2-4.7-2.4c-1.2-1.2-1.8-2.5-1.8-4c0-0.9,0.3-1.8,0.8-2.7c0.5-0.9,1.3-1.6,2.4-2.1L718.5,937.1z"/>
	<path class="st0" d="M769.5,1024.2c-1.1,0-2.4,0-3.9-0.1c-1.5-0.1-3-0.2-4.6-0.4c-1.6-0.2-3.1-0.5-4.7-0.8c-1.6-0.3-3-0.7-4.4-1.3
		c-3.7-1.4-5.5-3.9-5.5-7.3v-46.9c0-1.4,0.4-2.5,1.2-3.3c0.8-0.8,1.8-1.4,3.2-1.9c2.9-0.9,5.9-1.6,9.1-1.9c3.2-0.3,6.1-0.5,8.6-0.5
		c5.2,0,10,0.6,14.2,1.9c4.3,1.3,7.9,3.2,10.9,5.9c3,2.6,5.4,6,7.1,10c1.7,4,2.5,8.8,2.5,14.3c0,5.4-0.8,10-2.4,14
		c-1.6,4-3.9,7.3-6.9,10c-3,2.7-6.5,4.7-10.7,6.1C779.1,1023.5,774.5,1024.2,769.5,1024.2z M763.9,1009.5c0.7,0.1,1.6,0.3,2.7,0.4
		c1.1,0.1,2.1,0.2,3,0.2c2.3,0,4.4-0.3,6.3-1c1.9-0.7,3.5-1.7,4.9-3.1c1.4-1.4,2.4-3.2,3.2-5.5c0.8-2.2,1.2-4.9,1.2-8.1
		c0-6-1.4-10.6-4.2-13.6c-2.8-3-6.6-4.6-11.3-4.6c-0.9,0-1.9,0-2.9,0.1c-1,0.1-2,0.2-3,0.3V1009.5z"/>
	<path class="st0" d="M830.9,1022.2c-0.7,0.2-1.9,0.4-3.5,0.6c-1.6,0.2-3.1,0.3-4.7,0.3c-1.5,0-2.9-0.1-4.1-0.4
		c-1.2-0.2-2.2-0.7-3-1.3c-0.8-0.6-1.4-1.4-1.8-2.5c-0.4-1.1-0.6-2.5-0.6-4.2v-53c0.7-0.1,1.9-0.3,3.5-0.6c1.6-0.2,3.1-0.4,4.6-0.4
		c1.5,0,2.9,0.1,4.1,0.4c1.2,0.2,2.2,0.7,3,1.3c0.8,0.6,1.4,1.4,1.8,2.5c0.4,1.1,0.6,2.5,0.6,4.2V1022.2z"/>
	<path class="st0" d="M875,974c-5.2,0-9.1,1.6-11.9,4.7c-2.7,3.1-4.1,7.6-4.1,13.4c0,5.8,1.5,10.3,4.6,13.5c3,3.1,7.1,4.7,12.3,4.7
		c2.7,0,5.1-0.4,7-1.1c1.9-0.7,3.7-1.6,5.5-2.5c1.1,0.9,2,2.1,2.7,3.4c0.6,1.3,1,2.8,1,4.6c0,2.7-1.5,5.1-4.6,7
		c-3,1.9-7.7,2.9-13.9,2.9c-4.5,0-8.7-0.6-12.7-1.9c-4-1.3-7.4-3.2-10.3-5.9c-2.9-2.6-5.3-6-7-10c-1.7-4.1-2.6-8.9-2.6-14.5
		c0-5.2,0.8-9.8,2.5-13.8c1.6-4,3.9-7.3,6.7-10.1c2.8-2.7,6.2-4.8,10-6.2c3.8-1.4,7.9-2.1,12.3-2.1c6.2,0,10.9,1,14.3,3
		c3.4,2,5.1,4.6,5.1,7.7c0,1.7-0.4,3.2-1.3,4.5c-0.9,1.3-1.9,2.3-3,3c-1.7-1.1-3.6-2.1-5.6-2.9C879.9,974.4,877.6,974,875,974z"/>
	<path class="st0" d="M915.8,963.5c1.1-0.7,2.9-1.3,5.2-1.9c2.3-0.6,4.6-0.9,7-0.9c3.3,0,6.3,0.5,8.9,1.5c2.6,1,4.2,2.5,5,4.6
		c1.2,3.5,2.5,7.5,3.9,12.2c1.4,4.6,2.8,9.4,4.2,14.3c1.4,4.9,2.8,9.8,4.1,14.6c1.3,4.8,2.5,9,3.5,12.7c-0.8,0.9-2,1.7-3.6,2.3
		c-1.6,0.6-3.5,0.9-5.7,0.9c-1.6,0-3-0.1-4.1-0.4c-1.1-0.3-2-0.7-2.7-1.2c-0.7-0.5-1.3-1.2-1.7-2.1c-0.4-0.9-0.8-1.9-1.2-3l-1.8-6.9
		h-18.2c-0.5,2-1.1,4.1-1.6,6.2c-0.5,2.1-1.1,4.2-1.6,6.2c-0.9,0.3-1.9,0.6-3,0.9c-1,0.2-2.3,0.4-3.8,0.4c-3.4,0-5.9-0.6-7.6-1.8
		c-1.6-1.2-2.5-2.8-2.5-4.9c0-0.9,0.1-1.9,0.4-2.8c0.3-0.9,0.6-2,0.9-3.3c0.5-1.8,1.1-4.1,2-6.7c0.8-2.7,1.8-5.6,2.8-8.7
		c1-3.1,2.1-6.3,3.2-9.6c1.1-3.3,2.2-6.4,3.2-9.3c1-2.9,1.9-5.5,2.8-7.8C914.6,966.5,915.3,964.7,915.8,963.5z M927.8,976.5
		c-0.9,2.8-2,5.9-3.2,9.4c-1.2,3.5-2.2,6.9-3.2,10.5h12.5c-0.9-3.6-1.9-7.1-2.9-10.6c-1-3.4-1.9-6.5-2.7-9.3H927.8z"/>
</g>
<g>
	<path class="st1" d="M266.7,1135.3c-0.9,0.2-2.3,0.5-4.2,0.7c-1.9,0.2-3.8,0.4-5.6,0.4c-1.8,0-3.5-0.1-4.9-0.4
		c-1.4-0.3-2.6-0.8-3.6-1.5c-1-0.7-1.7-1.7-2.2-3c-0.5-1.3-0.7-3-0.7-5.1v-63.7c0.9-0.2,2.3-0.4,4.2-0.7c1.9-0.3,3.8-0.4,5.5-0.4
		c1.8,0,3.5,0.1,4.9,0.4c1.4,0.3,2.6,0.8,3.6,1.5c1,0.7,1.7,1.7,2.2,3c0.5,1.3,0.7,3,0.7,5.1V1135.3z"/>
	<path class="st1" d="M348.5,1133.2c-1.1,1.1-2.8,2-4.9,2.6c-2.1,0.6-4.7,0.9-7.7,0.9c-3,0-5.8-0.4-8.4-1.3c-2.7-0.9-4.8-3-6.5-6.4
		l-11.9-24.4c-1.2-2.5-2.3-4.8-3.3-7.1c-1-2.2-2-4.8-3.1-7.7l-0.7,0.1c0.3,4.3,0.5,8.8,0.5,13.3c0,4.5,0.1,8.9,0.1,13.3v18.7
		c-0.9,0.2-2.2,0.5-4,0.7c-1.8,0.2-3.6,0.4-5.4,0.4c-1.8,0-3.3-0.1-4.7-0.4c-1.4-0.2-2.5-0.7-3.4-1.4c-0.9-0.7-1.6-1.7-2-3
		c-0.5-1.2-0.7-2.9-0.7-4.9v-60.3c1.1-1.6,2.9-2.8,5.2-3.6c2.3-0.8,4.8-1.2,7.5-1.2c3,0,5.8,0.5,8.5,1.4c2.7,0.9,4.8,3,6.4,6.3
		l12.1,24.4c1.2,2.5,2.3,4.8,3.3,7.1c1,2.2,2,4.8,3.1,7.7l0.6-0.1c-0.3-4.3-0.5-8.7-0.6-13c-0.1-4.3-0.1-8.7-0.1-13v-19.5
		c0.9-0.2,2.2-0.5,4-0.7c1.8-0.2,3.6-0.4,5.4-0.4c3.5,0,6.2,0.6,8.1,1.9c1.8,1.2,2.8,3.8,2.8,7.8V1133.2z"/>
	<path class="st1" d="M360.8,1079.6c-0.6-0.9-1.1-2.1-1.6-3.6c-0.5-1.5-0.7-3.1-0.7-4.8c0-3.1,0.7-5.4,2.1-6.8c1.4-1.4,3.2-2,5.5-2
		h52.6c0.6,0.9,1.1,2.1,1.6,3.6c0.5,1.5,0.7,3.1,0.7,4.8c0,3.1-0.7,5.4-2.1,6.8c-1.4,1.4-3.2,2-5.5,2H400v55.7
		c-0.9,0.2-2.3,0.5-4.2,0.7c-1.9,0.2-3.8,0.4-5.6,0.4c-1.8,0-3.5-0.1-4.9-0.4c-1.4-0.3-2.6-0.8-3.6-1.5c-1-0.7-1.7-1.7-2.2-3
		c-0.5-1.3-0.7-3-0.7-5.1v-46.8H360.8z"/>
	<path class="st1" d="M431.2,1073.9c0-3.5,1-6.2,3-8.2c2-2,4.7-3,8.2-3h39.8c0.6,0.9,1.1,2,1.5,3.5c0.4,1.4,0.7,3,0.7,4.6
		c0,3.1-0.7,5.2-2,6.5c-1.3,1.3-3.1,1.9-5.2,1.9h-25.4v11.2h27.1c0.6,0.9,1.1,2,1.5,3.4c0.4,1.4,0.7,2.9,0.7,4.5
		c0,3.1-0.6,5.2-1.9,6.5c-1.3,1.3-3,1.9-5.2,1.9h-22.2v12.7h31c0.6,0.9,1.1,2,1.5,3.5c0.4,1.4,0.7,3,0.7,4.6c0,3.1-0.7,5.2-2,6.6
		c-1.3,1.3-3.1,2-5.2,2h-35.2c-3.5,0-6.2-1-8.2-3c-2-2-3-4.7-3-8.2V1073.9z"/>
	<path class="st1" d="M518.3,1112.1v23.1c-0.9,0.2-2.3,0.5-4.2,0.7c-1.9,0.2-3.8,0.4-5.6,0.4c-1.9,0-3.5-0.1-4.9-0.4
		c-1.4-0.3-2.6-0.8-3.5-1.5c-0.9-0.7-1.6-1.7-2.1-3c-0.5-1.3-0.7-3-0.7-5.1v-56.8c0-1.7,0.5-3,1.4-3.9c0.9-0.9,2.2-1.7,3.8-2.2
		c2.7-1,5.9-1.7,9.5-2.1c3.6-0.4,7.5-0.7,11.6-0.7c11.1,0,19.4,2.3,25.1,7c5.6,4.7,8.4,11,8.4,18.9c0,5-1.3,9.2-3.9,12.8
		c-2.6,3.5-5.6,6.3-9.2,8.2c2.9,3.9,5.7,7.6,8.6,11.1c2.8,3.5,5,6.6,6.6,9.4c-0.8,2.8-2.3,5-4.4,6.5c-2.1,1.5-4.5,2.2-7.2,2.2
		c-1.8,0-3.3-0.2-4.6-0.6c-1.3-0.4-2.4-1-3.4-1.7c-1-0.7-1.8-1.6-2.7-2.7c-0.8-1-1.6-2.2-2.3-3.4l-10.1-16.3H518.3z M525.8,1096.1
		c3.1,0,5.5-0.8,7.2-2.4c1.8-1.6,2.7-3.9,2.7-6.9c0-3.1-1-5.4-3-6.9c-2-1.6-5.1-2.4-9.3-2.4c-1.2,0-2.2,0-2.9,0.1
		c-0.7,0.1-1.5,0.2-2.4,0.4v18.1H525.8z"/>
	<path class="st1" d="M587.2,1064.8c1.4-0.8,3.4-1.6,6.2-2.3c2.8-0.7,5.6-1.1,8.4-1.1c4,0,7.6,0.6,10.7,1.7c3.1,1.2,5.1,3,6,5.5
		c1.4,4.2,3,9,4.7,14.6c1.7,5.5,3.4,11.3,5.1,17.2c1.7,5.9,3.3,11.7,4.9,17.5c1.6,5.7,3,10.8,4.2,15.2c-1,1.1-2.4,2-4.3,2.7
		c-1.9,0.7-4.2,1-6.9,1c-1.9,0-3.6-0.2-4.9-0.5c-1.3-0.3-2.4-0.8-3.3-1.4c-0.8-0.6-1.5-1.5-2-2.5c-0.5-1-1-2.2-1.4-3.6l-2.2-8.3
		h-21.8c-0.6,2.4-1.3,4.9-1.9,7.5c-0.6,2.6-1.3,5.1-1.9,7.5c-1.1,0.4-2.3,0.7-3.6,1c-1.2,0.3-2.8,0.4-4.5,0.4
		c-4.1,0-7.1-0.7-9.1-2.1c-2-1.4-3-3.4-3-5.8c0-1.1,0.2-2.2,0.5-3.4c0.3-1.1,0.7-2.5,1.1-4c0.6-2.2,1.3-4.9,2.4-8.1
		c1-3.2,2.1-6.7,3.3-10.4c1.2-3.7,2.5-7.6,3.9-11.5c1.4-3.9,2.7-7.7,3.9-11.2c1.2-3.5,2.3-6.6,3.3-9.3
		C585.9,1068.4,586.6,1066.3,587.2,1064.8z M601.7,1080.4c-1.1,3.4-2.4,7.1-3.8,11.3c-1.4,4.1-2.7,8.3-3.8,12.6H609
		c-1.1-4.3-2.3-8.6-3.4-12.7c-1.2-4.1-2.2-7.9-3.2-11.2H601.7z"/>
	<path class="st1" d="M683.3,1077.4c-6.2,0-10.9,1.9-14.2,5.7c-3.3,3.8-4.9,9.1-4.9,16c0,7,1.8,12.4,5.5,16.2
		c3.7,3.8,8.6,5.7,14.8,5.7c3.3,0,6.1-0.4,8.4-1.3c2.3-0.9,4.5-1.9,6.6-3c1.4,1.1,2.4,2.5,3.2,4c0.8,1.6,1.1,3.4,1.1,5.5
		c0,3.3-1.8,6.1-5.5,8.4c-3.7,2.3-9.2,3.4-16.7,3.4c-5.4,0-10.4-0.8-15.2-2.3c-4.7-1.5-8.9-3.9-12.4-7.1c-3.5-3.2-6.3-7.2-8.4-12.1
		c-2-4.9-3.1-10.7-3.1-17.4c0-6.3,1-11.8,3-16.6c2-4.8,4.7-8.8,8.1-12.1c3.4-3.3,7.4-5.8,12-7.5s9.5-2.5,14.7-2.5
		c7.4,0,13.1,1.2,17.2,3.6c4.1,2.4,6.1,5.5,6.1,9.3c0,2.1-0.5,3.9-1.6,5.4c-1,1.5-2.3,2.7-3.6,3.6c-2.1-1.4-4.3-2.5-6.7-3.5
		C689.2,1077.9,686.4,1077.4,683.3,1077.4z"/>
	<path class="st1" d="M713.2,1079.6c-0.6-0.9-1.1-2.1-1.6-3.6c-0.5-1.5-0.7-3.1-0.7-4.8c0-3.1,0.7-5.4,2.1-6.8c1.4-1.4,3.2-2,5.5-2
		h52.6c0.6,0.9,1.1,2.1,1.6,3.6c0.5,1.5,0.7,3.1,0.7,4.8c0,3.1-0.7,5.4-2.1,6.8c-1.4,1.4-3.2,2-5.5,2h-13.4v55.7
		c-0.9,0.2-2.3,0.5-4.2,0.7c-1.9,0.2-3.8,0.4-5.6,0.4c-1.9,0-3.5-0.1-4.9-0.4c-1.4-0.3-2.6-0.8-3.6-1.5c-1-0.7-1.7-1.7-2.2-3
		c-0.5-1.3-0.7-3-0.7-5.1v-46.8H713.2z"/>
	<path class="st1" d="M804.7,1135.3c-0.9,0.2-2.3,0.5-4.2,0.7c-1.9,0.2-3.8,0.4-5.6,0.4c-1.8,0-3.5-0.1-4.9-0.4
		c-1.4-0.3-2.6-0.8-3.6-1.5c-1-0.7-1.7-1.7-2.2-3c-0.5-1.3-0.7-3-0.7-5.1v-63.7c0.9-0.2,2.3-0.4,4.2-0.7c1.9-0.3,3.8-0.4,5.5-0.4
		c1.8,0,3.5,0.1,4.9,0.4c1.4,0.3,2.6,0.8,3.6,1.5c1,0.7,1.7,1.7,2.2,3c0.5,1.3,0.7,3,0.7,5.1V1135.3z"/>
	<path class="st1" d="M864.1,1133.3c-1.1,1-2.9,1.8-5.2,2.5c-2.4,0.7-5,1.1-7.8,1.1c-3.4,0-6.3-0.5-8.7-1.5c-2.4-1-4.1-2.4-4.9-4.2
		c-0.9-1.8-2-4.2-3.3-7.2c-1.3-2.9-2.6-6.2-4-9.8c-1.4-3.6-2.9-7.5-4.3-11.5c-1.5-4.1-2.9-8.2-4.3-12.4c-1.4-4.2-2.7-8.3-3.9-12.3
		c-1.2-4-2.3-7.8-3.1-11.3c1.1-1.1,2.8-2.1,4.9-3.1c2.1-0.9,4.4-1.4,6.8-1.4c3,0,5.4,0.6,7.3,1.9c1.9,1.2,3.3,3.6,4.2,6.9
		c2.2,7.9,4.4,15.4,6.6,22.6c2.2,7.2,4.5,14.7,6.9,22.5h0.7c2.2-7.6,4.4-15.8,6.7-24.7c2.3-8.9,4.5-17.8,6.6-26.6
		c1.4-0.7,3-1.3,4.6-1.8c1.6-0.5,3.5-0.7,5.6-0.7c3,0,5.5,0.7,7.6,2c2.1,1.3,3.1,3.5,3.1,6.6c0,1.8-0.4,4.3-1.3,7.7
		c-0.8,3.4-1.9,7.2-3.3,11.4s-2.8,8.6-4.5,13.2c-1.6,4.6-3.3,8.9-4.9,13c-1.6,4.1-3.2,7.6-4.6,10.7
		C866.2,1130,865,1132.1,864.1,1133.3z"/>
	<path class="st1" d="M908.7,1064.8c1.4-0.8,3.4-1.6,6.2-2.3c2.8-0.7,5.6-1.1,8.4-1.1c4,0,7.6,0.6,10.7,1.7c3.1,1.2,5.1,3,6,5.5
		c1.4,4.2,3,9,4.7,14.6c1.7,5.5,3.4,11.3,5.1,17.2c1.7,5.9,3.3,11.7,4.9,17.5c1.6,5.7,3,10.8,4.2,15.2c-1,1.1-2.4,2-4.3,2.7
		c-1.9,0.7-4.2,1-6.9,1c-1.9,0-3.6-0.2-4.9-0.5c-1.3-0.3-2.4-0.8-3.3-1.4c-0.8-0.6-1.5-1.5-2-2.5c-0.5-1-1-2.2-1.4-3.6l-2.2-8.3
		h-21.8c-0.6,2.4-1.3,4.9-1.9,7.5c-0.6,2.6-1.3,5.1-1.9,7.5c-1.1,0.4-2.3,0.7-3.6,1c-1.2,0.3-2.8,0.4-4.5,0.4
		c-4.1,0-7.1-0.7-9.1-2.1c-2-1.4-3-3.4-3-5.8c0-1.1,0.2-2.2,0.5-3.4c0.3-1.1,0.7-2.5,1.1-4c0.6-2.2,1.3-4.9,2.4-8.1
		c1-3.2,2.1-6.7,3.3-10.4c1.2-3.7,2.5-7.6,3.9-11.5c1.4-3.9,2.7-7.7,3.9-11.2c1.2-3.5,2.3-6.6,3.3-9.3
		C907.4,1068.4,908.2,1066.3,908.7,1064.8z M923.2,1080.4c-1.1,3.4-2.4,7.1-3.8,11.3c-1.4,4.1-2.7,8.3-3.8,12.6h14.9
		c-1.1-4.3-2.3-8.6-3.4-12.7c-1.2-4.1-2.2-7.9-3.2-11.2H923.2z"/>
</g>
<g>
	<path class="st2" d="M634.4,733.6c98.4,0,196.9,0,295.3,0c6.3,0,6.4,0,6.4-10.5c0-54,0-107.9,0-161.9c0-98-0.2-196.1,0.1-294.1
		c0.2-64.2-18.2-110.6-51.7-143.1c-18.8-18.2-39.5-26-61.5-26c-76.4,0-152.8,0-229.2,0c-117.5,0-235.1,0-352.6,0
		c-5.5,0-5.5,0-5.5,8.9c0,153.5,0.1,307.1,0,460.7c0,49,12,88.9,34.9,120.7c17.3,24.1,37.6,37.9,60.2,43.1
		c6.7,1.5,13.4,2.1,20.2,2.1C445.4,733.6,539.9,733.6,634.4,733.6z"/>
	<path class="st3" d="M659.1,697.6c98.4,0,196.9,0,295.3,0c6.3,0,6.4,0,6.4-10.5c0-54,0-107.9,0-161.9c0-98-0.2-196.1,0.1-294.1
		c0.2-64.2-18.2-110.6-51.7-143.1c-18.8-18.2-39.5-26-61.5-26c-76.4,0-152.8,0-229.2,0c-117.5,0-235.1,0-352.6,0
		c-5.5,0-5.5,0-5.5,8.9c0,153.5,0.1,307.1,0,460.7c0,49,12,88.9,34.9,120.7c17.3,24.1,37.6,37.9,60.2,43.1
		c6.7,1.5,13.4,2.1,20.2,2.1C470.1,697.6,564.6,697.6,659.1,697.6z"/>
	<path class="st4" d="M961.4,303c0,41.4,0,394.2,0,394.2H425.8c0,0,362-125.9,441.6-633.1C921.2,86.6,971.4,124.9,961.4,303z"/>
	<g>
		<g>
			<path class="st5" d="M734.2,490.5c0,19.9-5.8,35.6-17.3,47.1c-11.6,11.6-27.3,17.3-47.1,17.3H467.4c-12.5,0-22.5-3.8-30.1-11.4
				c-7.6-7.6-11.4-20.2-11.4-37.8c0-9.2,1.3-18,3.8-26.3c2.5-8.3,5.4-15,8.7-20.1h178.1v-72.8H488.9c-12.5,0-22.4-3.7-29.8-11.1
				c-7.4-7.4-11.1-19.9-11.1-37.4c0-9.2,1.3-17.9,3.8-26c2.6-8.1,5.4-14.7,8.7-19.8h155.9v-64.4H470.2c-12.5,0-22.5-3.7-30.1-11.1
				c-7.6-7.4-11.4-19.8-11.4-37.4c0-9.2,1.3-18,3.8-26.3c2.5-8.3,5.4-15,8.7-20.1h228.7c19.9,0,35.6,5.8,47.1,17.3
				c11.5,11.6,17.3,27.3,17.3,47.1V490.5z"/>
		</g>
		<g class="st6">
			<g>
				<path class="st1" d="M795.4,620.5c-5.1,1.4-13.2,2.8-24.1,4.2c-11,1.4-21.8,2.1-32.5,2.1c-10.7,0-20.2-0.8-28.3-2.5
					c-8.2-1.6-15-4.5-20.6-8.7c-5.6-4.2-9.8-10-12.6-17.5c-2.8-7.5-4.2-17.2-4.2-29.4V199.6c5.1-0.9,13.3-2.2,24.5-3.8
					c11.2-1.6,21.9-2.4,32.2-2.4c10.7,0,20.2,0.8,28.3,2.4c8.1,1.6,15,4.5,20.6,8.7c5.6,4.2,9.8,10,12.6,17.5
					c2.8,7.5,4.2,17.3,4.2,29.4V620.5z"/>
			</g>
		</g>
	</g>
</g>
<g>
	<path class="st7" d="M331.5,895.8c-1.8,1.5-4.1,2.7-6.9,3.6c-2.8,0.9-6.1,1.3-9.8,1.3c-5,0-9.1-0.6-12.3-1.9
		c-3.2-1.2-5.3-3.4-6.3-6.4c-3.9-12.1-7-21.9-9.5-29.5c-2.5-7.5-4.4-14.1-5.8-19.7h-1c-0.4,8.1-0.7,15.5-0.9,22.2
		c-0.2,6.7-0.3,13.2-0.4,19.5c-0.1,6.3-0.2,12.8-0.4,19.2c-0.2,6.5-0.5,13.6-0.9,21.5c-1.8,0.7-4.1,1.3-7,1.8
		c-2.9,0.5-5.8,0.7-8.7,0.7c-6.1,0-10.8-1-14.2-2.9c-3.4-1.9-5.1-5.4-5.1-10.5l6-105.5c1.1-1.8,3.5-3.7,7.2-5.8
		c3.7-2.1,9-3.1,15.7-3.1c7.3,0,13,1.1,17.2,3.4c4.1,2.3,7.2,6,9.1,11.1c1.2,3.3,2.6,7.1,4,11.4c1.4,4.3,2.9,8.7,4.3,13.2
		c1.4,4.5,2.9,9.1,4.2,13.5c1.4,4.5,2.6,8.5,3.7,12.1h1c3.3-11.6,6.6-22.8,9.9-33.6c3.3-10.8,6.3-19.9,9.1-27.2c2.1-1.1,4.7-2,8-2.8
		c3.2-0.8,6.9-1.1,10.9-1.1c6.8,0,12.3,1,16.5,3c4.3,2,6.8,4.9,7.4,8.6c0.5,2.8,1.1,7,1.8,12.7c0.6,5.7,1.3,12.2,2,19.3
		c0.7,7.2,1.4,14.8,2.1,22.7c0.7,8,1.3,15.7,2,23.1c0.6,7.4,1.1,14.1,1.6,20.3c0.4,6.1,0.7,10.9,0.8,14.2c-2.3,1.4-4.8,2.4-7.3,3
		c-2.6,0.6-5.8,0.9-9.8,0.9c-5.2,0-9.6-0.9-13.2-2.7c-3.6-1.8-5.5-5.3-5.8-10.5c-0.8-15-1.3-28.5-1.6-40.5
		c-0.2-12-0.5-22.1-0.9-30.2h-1c-1.4,5.4-3.4,12.1-6,20.3C338.4,872.8,335.2,883.2,331.5,895.8z"/>
	<path class="st7" d="M445.8,925.8c-1.5,0.4-3.9,0.8-7.1,1.2c-3.2,0.4-6.4,0.6-9.6,0.6c-3.2,0-6-0.2-8.4-0.7
		c-2.4-0.5-4.4-1.3-6.1-2.6c-1.7-1.2-2.9-3-3.7-5.2c-0.8-2.2-1.2-5.1-1.2-8.7V801.4c1.5-0.3,3.9-0.7,7.2-1.1
		c3.3-0.5,6.5-0.7,9.5-0.7c3.2,0,6,0.2,8.4,0.7c2.4,0.5,4.4,1.3,6.1,2.6c1.7,1.2,2.9,3,3.7,5.2c0.8,2.2,1.2,5.1,1.2,8.7V925.8z"/>
	<path class="st7" d="M627.6,906.2c0,4.3-0.8,7.4-2.3,9.5c-1.5,2.1-3.9,4.1-7.2,6c-1.9,1.1-4.3,2.2-7.2,3.2c-2.9,1-6.1,1.9-9.5,2.7
		c-3.4,0.8-7.1,1.3-10.9,1.8c-3.8,0.4-7.5,0.6-11.3,0.6c-9.9,0-19.2-1.3-27.9-4c-8.7-2.7-16.2-6.8-22.6-12.2
		c-6.4-5.4-11.5-12.2-15.2-20.4c-3.7-8.1-5.6-17.6-5.6-28.3c0-11.3,2-21.2,6.1-29.6c4.1-8.4,9.4-15.4,16.1-21
		c6.7-5.6,14.3-9.8,23-12.5c8.6-2.8,17.5-4.1,26.6-4.1c13.1,0,23.5,2.1,31.1,6.3c7.7,4.2,11.5,9.7,11.5,16.4c0,3.6-0.9,6.7-2.7,9.3
		c-1.8,2.6-3.9,4.7-6.2,6.2c-3.4-2.1-7.8-4.1-12.9-6.1c-5.2-2-11-3-17.5-3c-11.6,0-20.8,3.3-27.6,9.9c-6.8,6.6-10.2,15.8-10.2,27.5
		c0,6.3,0.9,11.8,2.8,16.4c1.9,4.6,4.4,8.4,7.5,11.4c3.2,3,6.8,5.2,11,6.6c4.1,1.4,8.5,2.2,13.2,2.2c3,0,5.7-0.3,8.1-0.8
		c2.3-0.5,4.1-1.2,5.4-1.9v-19.4h-22.1c-0.8-1.5-1.6-3.5-2.4-6c-0.8-2.5-1.1-5.1-1.1-7.9c0-5,1.1-8.5,3.4-10.8
		c2.3-2.2,5.2-3.3,8.8-3.3h34.9c4.1,0,7.3,1.1,9.6,3.4c2.3,2.3,3.4,5.5,3.4,9.6V906.2z"/>
	<path class="st7" d="M762.4,880.3c0,7.4-1.3,14.2-3.8,20.4c-2.6,6.1-6.2,11.4-11.1,15.7c-4.8,4.3-10.7,7.7-17.6,10
		c-6.9,2.3-14.7,3.5-23.4,3.5c-8.7,0-16.5-1.2-23.4-3.5c-6.9-2.3-12.8-5.7-17.6-10c-4.8-4.3-8.5-9.6-11.1-15.7
		c-2.6-6.1-3.8-12.9-3.8-20.4v-79c1.5-0.3,3.9-0.7,7.2-1.1c3.3-0.5,6.5-0.7,9.5-0.7c3.2,0,6,0.2,8.4,0.7c2.4,0.5,4.4,1.3,6.1,2.6
		c1.7,1.2,2.9,3,3.7,5.2c0.8,2.2,1.2,5.1,1.2,8.7v63.1c0,6.6,1.8,11.8,5.5,15.5c3.7,3.7,8.4,5.6,14.2,5.6c5.9,0,10.7-1.9,14.3-5.6
		c3.6-3.7,5.4-8.9,5.4-15.5v-78.4c1.5-0.3,3.9-0.7,7.2-1.1c3.3-0.5,6.5-0.7,9.5-0.7c3.2,0,6,0.2,8.4,0.7c2.4,0.5,4.4,1.3,6.1,2.6
		c1.7,1.2,2.9,3,3.7,5.2c0.8,2.2,1.2,5.1,1.2,8.7V880.3z"/>
	<path class="st7" d="M820.7,750.7c6.8,0.6,11.6,2.2,14.5,4.9c2.9,2.7,4.3,5.8,4.3,9.4c0,4-1.1,7.2-3.4,9.5
		c-2.3,2.3-5.8,4.5-10.6,6.4l-28.3,11.2c-4-0.8-7.2-2.5-9.6-5c-2.4-2.5-3.6-5.2-3.6-8.3c0-1.9,0.5-3.8,1.6-5.6
		c1-1.8,2.7-3.2,4.9-4.3L820.7,750.7z M824.8,925.8c-1.5,0.4-3.9,0.8-7.1,1.2c-3.2,0.4-6.4,0.6-9.6,0.6c-3.2,0-6-0.2-8.4-0.7
		c-2.4-0.5-4.4-1.3-6.1-2.6c-1.7-1.2-2.9-3-3.7-5.2c-0.8-2.2-1.2-5.1-1.2-8.7V801.4c1.5-0.3,3.9-0.7,7.2-1.1
		c3.3-0.5,6.5-0.7,9.5-0.7c3.2,0,6,0.2,8.4,0.7c2.4,0.5,4.4,1.3,6.1,2.6c1.7,1.2,2.9,3,3.7,5.2c0.8,2.2,1.2,5.1,1.2,8.7V925.8z"/>
	<path class="st7" d="M878.4,805.1c2.3-1.4,5.9-2.7,10.6-3.9c4.8-1.2,9.5-1.9,14.4-1.9c6.9,0,13,1,18.3,3c5.3,2,8.7,5.1,10.2,9.4
		c2.5,7.2,5.2,15.5,8.1,25c2.9,9.5,5.8,19.3,8.7,29.5c2.9,10.1,5.7,20.1,8.5,30c2.8,9.9,5.2,18.6,7.2,26.2c-1.7,1.9-4.1,3.5-7.4,4.7
		c-3.3,1.2-7.2,1.8-11.8,1.8c-3.3,0-6.1-0.3-8.4-0.8c-2.3-0.6-4.1-1.4-5.6-2.5c-1.4-1.1-2.6-2.5-3.5-4.3c-0.9-1.8-1.7-3.9-2.4-6.2
		l-3.7-14.3h-37.4c-1.1,4.1-2.2,8.4-3.3,12.8c-1.1,4.4-2.2,8.7-3.3,12.8c-1.9,0.7-4,1.3-6.1,1.8c-2.1,0.5-4.7,0.7-7.8,0.7
		c-7,0-12.2-1.2-15.6-3.6c-3.4-2.4-5.1-5.8-5.1-10c0-1.9,0.3-3.9,0.8-5.8c0.5-1.9,1.2-4.2,1.9-6.8c1-3.7,2.3-8.3,4-13.9
		c1.7-5.5,3.6-11.5,5.7-17.9c2.1-6.4,4.3-13,6.6-19.7c2.3-6.8,4.5-13.1,6.6-19.1c2.1-6,4-11.3,5.7-16
		C876.1,811.1,877.4,807.6,878.4,805.1z M903.2,831.7c-1.9,5.8-4.1,12.2-6.5,19.3c-2.4,7.1-4.6,14.3-6.5,21.6h25.6
		c-1.9-7.4-3.9-14.7-5.9-21.8c-2-7.1-3.8-13.5-5.5-19.1H903.2z"/>
</g>
</svg>
