<?xml version="1.0" encoding="UTF-8" standalone="no"?>
<!-- Created with Inkscape (http://www.inkscape.org/) -->
<svg
   xmlns:dc="http://purl.org/dc/elements/1.1/"
   xmlns:cc="http://creativecommons.org/ns#"
   xmlns:rdf="http://www.w3.org/1999/02/22-rdf-syntax-ns#"
   xmlns:svg="http://www.w3.org/2000/svg"
   xmlns="http://www.w3.org/2000/svg"
   xmlns:sodipodi="http://sodipodi.sourceforge.net/DTD/sodipodi-0.dtd"
   xmlns:inkscape="http://www.inkscape.org/namespaces/inkscape"
   width="440"
   height="620"
   id="svg2"
   sodipodi:version="0.32"
   inkscape:version="0.46"
   version="1.0"
   sodipodi:docname="hexágono regular.svg"
   inkscape:output_extension="org.inkscape.output.svg.inkscape">
  <defs
     id="defs4">
    <inkscape:perspective
       sodipodi:type="inkscape:persp3d"
       inkscape:vp_x="0 : 526.18109 : 1"
       inkscape:vp_y="0 : 1000 : 0"
       inkscape:vp_z="744.09448 : 526.18109 : 1"
       inkscape:persp3d-origin="372.04724 : 350.78739 : 1"
       id="perspective10" />
  </defs>
  <sodipodi:namedview
     id="base"
     pagecolor="#ffffff"
     bordercolor="#666666"
     borderopacity="1.0"
     inkscape:pageopacity="0.0"
     inkscape:pageshadow="2"
     inkscape:zoom="1.979899"
     inkscape:cx="221.63636"
     inkscape:cy="486.30206"
     inkscape:document-units="px"
     inkscape:current-layer="layer1"
     showgrid="true"
     gridtolerance="10000"
     inkscape:window-width="1280"
     inkscape:window-height="728"
     inkscape:window-x="0"
     inkscape:window-y="11"
     inkscape:snap-nodes="true"
     inkscape:snap-bbox="false"
     inkscape:object-nodes="false"
     objecttolerance="10000"
     guidetolerance="10000"
     inkscape:object-paths="true"
     inkscape:snap-global="true"
     showguides="false">
    <inkscape:grid
       type="xygrid"
       id="grid2397"
       visible="false"
       enabled="true"
       spacingx="20px"
       spacingy="20px" />
    <sodipodi:guide
       position="20.000004,101.58977"
       orientation="-378.41023,0"
       id="guide3358" />
    <sodipodi:guide
       position="399.99998,480"
       orientation="378.41023,0"
       id="guide3362" />
    <sodipodi:guide
       position="399.99998,101.58977"
       orientation="0,-379.99998"
       id="guide3364" />
  </sodipodi:namedview>
  <metadata
     id="metadata7">
    <rdf:RDF>
      <cc:Work
         rdf:about="">
        <dc:format>image/svg+xml</dc:format>
        <dc:type
           rdf:resource="http://purl.org/dc/dcmitype/StillImage" />
      </cc:Work>
    </rdf:RDF>
  </metadata>
  <g
     inkscape:label="Capa 1"
     inkscape:groupmode="layer"
     id="layer1"
     transform="translate(-56.816963,-173.6546)">
    <path
       style="font-size:88px;font-style:normal;font-variant:normal;font-weight:normal;font-stretch:normal;text-align:center;line-height:100%;writing-mode:lr-tb;text-anchor:middle;fill:#000000;fill-opacity:1;stroke:none;stroke-width:1px;stroke-linecap:butt;stroke-linejoin:miter;stroke-opacity:1;font-family:Georgia;-inkscape-font-specification:Georgia"
       d="M 146.08453,262.22604 L 120.77594,262.22604 L 120.77594,259.17526 C 121.4634,259.11797 122.45884,259.03204 123.76227,258.91745 C 125.06561,258.80287 125.96079,258.631 126.44781,258.40182 C 127.30714,258.05808 127.93735,257.53529 128.33844,256.83347 C 128.73943,256.13165 128.93995,255.22214 128.94,254.10495 L 128.94,232.40573 L 100.27985,232.40573 L 100.27985,253.63229 C 100.27982,254.63491 100.44454,255.47996 100.77399,256.16745 C 101.10339,256.85496 101.75508,257.45652 102.72906,257.97214 C 103.21602,258.22995 104.08256,258.48777 105.32867,258.74557 C 106.57474,259.00339 107.55586,259.14662 108.27203,259.17526 L 108.27203,262.22604 L 82.96344,262.22604 L 82.96344,259.17526 C 83.650935,259.11797 84.646377,259.03204 85.949768,258.91745 C 87.253145,258.80287 88.148326,258.631 88.635315,258.40182 C 89.494679,258.05808 90.124887,257.53529 90.52594,256.83347 C 90.926969,256.13165 91.12749,255.22214 91.127502,254.10495 L 91.127502,210.10495 C 91.12749,209.18834 90.941292,208.35045 90.568909,207.59128 C 90.196501,206.83222 89.551971,206.23782 88.635315,205.80807 C 87.861868,205.43574 86.923718,205.10631 85.820862,204.81979 C 84.717991,204.53339 83.765518,204.36152 82.96344,204.30417 L 82.96344,201.25339 L 108.27203,201.25339 L 108.27203,204.30417 C 107.46992,204.33287 106.4888,204.46178 105.32867,204.69089 C 104.16849,204.92011 103.30196,205.13495 102.72906,205.33542 C 101.75508,205.67923 101.10339,206.25214 100.77399,207.05417 C 100.44454,207.85631 100.27982,208.73 100.27985,209.67526 L 100.27985,228.58151 L 128.94,228.58151 L 128.94,210.10495 C 128.93995,209.18834 128.75375,208.35045 128.38141,207.59128 C 128.00896,206.83222 127.36443,206.23782 126.44781,205.80807 C 125.67433,205.43574 124.73618,205.10631 123.63336,204.81979 C 122.53045,204.53339 121.57798,204.36152 120.77594,204.30417 L 120.77594,201.25339 L 146.08453,201.25339 L 146.08453,204.30417 C 145.28238,204.33287 144.30127,204.46178 143.14117,204.69089 C 141.98095,204.92011 141.11442,205.13495 140.54156,205.33542 C 139.56755,205.67923 138.91585,206.25214 138.58649,207.05417 C 138.257,207.85631 138.09229,208.73 138.09235,209.67526 L 138.09235,253.63229 C 138.09229,254.63491 138.257,255.47996 138.58649,256.16745 C 138.91585,256.85496 139.56755,257.45652 140.54156,257.97214 C 141.02848,258.22995 141.89502,258.48777 143.14117,258.74557 C 144.3872,259.00339 145.36832,259.14662 146.08453,259.17526 L 146.08453,262.22604 z M 191.15875,252.25729 C 189.38267,255.63751 187.00507,258.33021 184.02594,260.33542 C 181.04674,262.34063 177.62357,263.34323 173.75641,263.34323 C 170.34753,263.34323 167.36121,262.74167 164.79742,261.53854 C 162.23361,260.33542 160.12098,258.70261 158.45953,256.64011 C 156.79807,254.57761 155.55914,252.17137 154.74274,249.42136 C 153.92633,246.67137 153.51812,243.76382 153.51813,240.6987 C 153.51812,237.94872 153.95497,235.24886 154.82867,232.59909 C 155.70237,229.94938 156.98427,227.56462 158.67438,225.44479 C 160.30718,223.41098 162.33387,221.77101 164.75446,220.52487 C 167.17501,219.27882 169.8892,218.65577 172.89703,218.65573 C 175.99076,218.65577 178.6405,219.14275 180.84625,220.11667 C 183.05195,221.09067 184.84231,222.4227 186.21735,224.11276 C 187.53502,225.71697 188.51614,227.60759 189.16071,229.78464 C 189.8052,231.96175 190.12746,234.32503 190.1275,236.87448 L 190.1275,239.71042 L 162.06891,239.71042 C 162.0689,242.48908 162.33387,245.00992 162.86383,247.27292 C 163.39377,249.53595 164.23166,251.52684 165.3775,253.24557 C 166.49467,254.90704 167.95561,256.21759 169.76031,257.17722 C 171.56498,258.13686 173.71342,258.61667 176.20563,258.61667 C 178.75508,258.61667 180.95364,258.02227 182.80133,256.83347 C 184.64895,255.64467 186.43215,253.5034 188.15094,250.40964 L 191.15875,252.25729 z M 181.66266,236.10104 C 181.66263,234.4969 181.52656,232.77816 181.25446,230.94479 C 180.98229,229.11149 180.54544,227.57894 179.94391,226.34714 C 179.28503,225.02947 178.38268,223.95525 177.23688,223.12448 C 176.09102,222.29379 174.61576,221.87843 172.8111,221.87839 C 169.80326,221.87843 167.30392,223.13168 165.31305,225.63815 C 163.32215,228.1447 162.24077,231.63232 162.06891,236.10104 L 181.66266,236.10104 z M 236.96344,262.22604 L 217.54156,262.22604 L 217.54156,259.39011 C 218.8306,259.24688 219.9263,259.10365 220.82867,258.96042 C 221.73099,258.81719 222.18216,258.4448 222.18219,257.84323 C 222.18216,257.58542 222.03893,257.18438 221.7525,256.64011 C 221.46602,256.09584 221.17956,255.59454 220.89313,255.1362 C 220.17695,254.01902 219.19584,252.52228 217.94977,250.64597 C 216.70365,248.76968 215.17826,246.52814 213.3736,243.92136 C 211.88399,245.78335 210.509,247.5952 209.2486,249.3569 C 207.98816,251.11863 206.67046,252.98777 205.29547,254.96432 C 205.09494,255.25079 204.88726,255.60886 204.67242,256.03854 C 204.45757,256.46824 204.35015,256.81199 204.35016,257.06979 C 204.35015,257.70001 204.75835,258.22279 205.57477,258.63815 C 206.39116,259.05352 207.61577,259.33282 209.2486,259.47604 L 209.2486,262.22604 L 193.565,262.22604 L 193.565,259.56198 C 195.51292,258.98907 197.08127,258.29441 198.27008,257.478 C 199.45888,256.6616 200.55458,255.65183 201.55719,254.4487 C 202.4452,253.30288 203.68413,251.72736 205.27399,249.72214 C 206.86382,247.71694 208.91915,244.99559 211.44,241.55807 C 209.97905,239.46695 208.19585,236.91031 206.09039,233.88815 C 203.98491,230.86605 202.24468,228.35238 200.86969,226.34714 C 200.12489,225.25863 199.27268,224.37777 198.31305,223.70456 C 197.35341,223.03142 195.9999,222.69483 194.2525,222.69479 L 194.2525,219.85886 L 212.6861,219.85886 L 212.6861,222.69479 C 211.76941,222.69483 210.86707,222.75212 209.97906,222.86667 C 209.09103,222.98129 208.64702,223.2391 208.64703,223.64011 C 208.64702,223.89796 208.73296,224.18442 208.90485,224.49948 C 209.07671,224.81462 209.29155,225.15837 209.54938,225.53073 C 210.17957,226.50473 211.16069,228.00863 212.49274,230.04245 C 213.82475,232.07633 215.2642,234.22477 216.8111,236.48776 C 217.81368,235.11279 218.98099,233.50862 220.31305,231.67526 C 221.64505,229.84196 222.86966,228.09457 223.98688,226.43307 C 224.10143,226.23259 224.21601,225.98194 224.33063,225.68112 C 224.44518,225.38038 224.50247,225.08676 224.5025,224.80026 C 224.50247,224.19874 224.00833,223.71892 223.02008,223.36081 C 222.03177,223.00278 221.09362,222.75212 220.20563,222.60886 L 220.20563,219.85886 L 235.84625,219.85886 L 235.84625,222.52292 C 233.64048,223.09587 231.92173,223.77621 230.69,224.56393 C 229.4582,225.35173 228.41262,226.26124 227.55328,227.29245 C 226.60794,228.46696 225.48359,229.91358 224.18024,231.63229 C 222.87682,233.35107 221.05065,235.75732 218.70172,238.85104 C 221.30846,242.51773 223.42825,245.52554 225.0611,247.87448 C 226.69388,250.22345 228.34101,252.64402 230.0025,255.1362 C 230.83319,256.39662 231.75702,257.39206 232.77399,258.12253 C 233.79087,258.853 235.18736,259.27553 236.96344,259.39011 L 236.96344,262.22604 z M 280.79156,261.45261 C 279.44517,261.93959 278.26353,262.33347 277.24664,262.63425 C 276.22968,262.93503 275.07668,263.08542 273.78766,263.08542 C 271.55325,263.08542 269.77005,262.56263 268.43805,261.51706 C 267.10599,260.47149 266.25378,258.9461 265.88141,256.94089 L 265.6236,256.94089 C 263.76159,259.00339 261.76355,260.57891 259.62946,261.66745 C 257.49532,262.75599 254.92436,263.30026 251.91656,263.30026 C 248.73687,263.30026 246.12294,262.3263 244.07477,260.37839 C 242.02659,258.43047 241.0025,255.881 241.0025,252.72995 C 241.0025,251.09715 241.23167,249.63621 241.69,248.34714 C 242.14833,247.05809 242.83583,245.89794 243.7525,244.86667 C 244.46864,244.00731 245.41395,243.24104 246.58844,242.56784 C 247.76291,241.89468 248.86577,241.35757 249.89703,240.95651 C 251.18608,240.46956 253.80001,239.56721 257.73883,238.24948 C 261.67761,236.9318 264.33451,235.90055 265.70953,235.15573 L 265.70953,230.90182 C 265.70951,230.52946 265.63073,229.81332 265.47321,228.75339 C 265.31563,227.69353 264.97904,226.69092 264.46344,225.74557 C 263.8905,224.68572 263.08125,223.76189 262.03571,222.97409 C 260.99011,222.18637 259.50769,221.79249 257.58844,221.79245 C 256.27071,221.79249 255.0461,222.0145 253.91461,222.45847 C 252.78309,222.90252 251.98817,223.36801 251.52985,223.85495 C 251.52983,224.4279 251.6659,225.27296 251.93805,226.39011 C 252.21017,227.50733 252.34624,228.53858 252.34625,229.48386 C 252.34624,230.48649 251.89507,231.40316 250.99274,232.23386 C 250.09038,233.06461 248.83713,233.47998 247.23297,233.47995 C 245.80067,233.47998 244.74794,232.97152 244.07477,231.95456 C 243.40159,230.93766 243.065,229.79899 243.065,228.53854 C 243.065,227.22087 243.53049,225.96045 244.46149,224.75729 C 245.39247,223.55421 246.60275,222.47999 248.09235,221.53464 C 249.3814,220.7326 250.94259,220.05226 252.77594,219.49362 C 254.60926,218.93507 256.39962,218.65577 258.14703,218.65573 C 260.55326,218.65577 262.65157,218.82049 264.44196,219.14987 C 266.23229,219.47934 267.85794,220.18833 269.31891,221.27682 C 270.77981,222.33676 271.88984,223.77621 272.64899,225.59518 C 273.40807,227.41423 273.78762,229.75602 273.78766,232.62057 C 273.78762,236.71695 273.74465,240.34781 273.65875,243.51315 C 273.57278,246.67853 273.52981,250.13751 273.52985,253.89011 C 273.52981,255.0073 273.72317,255.89532 274.10992,256.55417 C 274.49661,257.21303 275.09101,257.77162 275.89313,258.22995 C 276.32278,258.48777 277.00311,258.631 277.93414,258.65964 C 278.86509,258.68829 279.81756,258.70261 280.79156,258.70261 L 280.79156,261.45261 z M 265.79547,238.76511 C 263.36055,239.48127 261.22644,240.1831 259.39313,240.87057 C 257.55977,241.5581 255.85535,242.41747 254.27985,243.4487 C 252.84754,244.42268 251.71603,245.57567 250.88531,246.90768 C 250.05457,248.23973 249.63921,249.82241 249.63922,251.65573 C 249.63921,254.03334 250.26226,255.78074 251.50836,256.89792 C 252.75444,258.01511 254.33712,258.5737 256.25641,258.5737 C 258.29024,258.5737 260.0806,258.07956 261.6275,257.09128 C 263.17435,256.103 264.47774,254.93569 265.53766,253.58932 L 265.79547,238.76511 z M 269.36188,199.49167 C 269.36185,200.58027 269.11119,201.46829 268.60992,202.15573 C 268.10859,202.84329 267.37096,203.57376 266.39703,204.34714 C 264.96471,205.49303 263.09558,206.95396 260.78961,208.72995 C 258.4836,210.50604 255.99858,212.43964 253.33453,214.53073 L 251.70172,213.15573 C 254.27983,209.34589 256.07735,206.66034 257.0943,205.09909 C 258.11121,203.53795 259.20691,201.81204 260.38141,199.92136 C 261.26941,198.46048 262.12878,197.46504 262.95953,196.93503 C 263.79024,196.40515 264.74987,196.14017 265.83844,196.14011 C 266.86966,196.14017 267.71471,196.49108 268.3736,197.19284 C 269.03242,197.89473 269.36185,198.661 269.36188,199.49167 L 269.36188,199.49167 z M 321.3111,257.84323 C 322.45689,258.93178 323.35923,260.16355 324.01813,261.53854 C 324.67694,262.91354 325.00637,264.61797 325.00641,266.65182 C 325.00637,268.68567 324.56236,270.59778 323.67438,272.38815 C 322.78632,274.17851 321.43996,275.73254 319.63531,277.05026 C 317.71601,278.3966 315.42434,279.44217 312.76031,280.18698 C 310.09622,280.93175 306.80196,281.30415 302.8775,281.30417 C 296.46082,281.30415 291.66265,280.366 288.48297,278.48972 C 285.30328,276.6134 283.71344,273.87056 283.71344,270.2612 C 283.71344,267.33932 284.85927,265.03333 287.15094,263.34323 C 289.4426,261.65313 292.36447,260.73646 295.91656,260.59323 L 295.91656,259.99167 C 295.05718,259.73386 294.16916,259.41159 293.2525,259.02487 C 292.33583,258.63816 291.54807,258.18699 290.88922,257.67136 C 290.14442,257.0698 289.54286,256.36082 289.08453,255.5444 C 288.62619,254.728 288.39703,253.71824 288.39703,252.51511 C 288.39703,250.99689 288.93414,249.60041 290.00836,248.32565 C 291.08257,247.05093 292.70822,245.95523 294.88531,245.03854 L 294.88531,244.39401 C 292.1353,243.10497 290.00119,241.45067 288.48297,239.43112 C 286.96474,237.41162 286.20562,235.06982 286.20563,232.40573 C 286.20562,228.39535 287.70237,225.10108 290.69586,222.52292 C 293.68934,219.94484 297.52072,218.65577 302.19,218.65573 C 303.47904,218.65577 304.76094,218.78468 306.03571,219.04245 C 307.31042,219.30031 308.60664,219.62973 309.92438,220.03073 L 324.70563,220.03073 L 324.70563,224.15573 L 314.73688,224.15573 L 314.73688,224.41354 C 315.79674,225.64535 316.5845,227.00603 317.10016,228.49557 C 317.61575,229.98519 317.87356,231.44613 317.8736,232.87839 C 317.87356,236.60237 316.36249,239.75341 313.34039,242.33151 C 310.31823,244.90965 306.80196,246.19872 302.79156,246.1987 L 297.59235,246.1987 C 296.93348,246.42788 296.24598,246.84325 295.52985,247.44479 C 294.81369,248.04637 294.45561,248.86278 294.45563,249.89401 C 294.45561,250.95392 294.7564,251.76316 295.35797,252.32175 C 295.95952,252.88035 296.68999,253.25991 297.54938,253.46042 C 298.38009,253.68959 299.34689,253.83282 300.44977,253.89011 C 301.55261,253.94741 302.69128,253.99037 303.86578,254.01901 C 305.12618,254.04767 306.85209,254.1336 309.04352,254.27682 C 311.23489,254.42006 312.78893,254.506 313.70563,254.53464 C 315.0233,254.59194 316.34817,254.90704 317.68024,255.47995 C 319.01223,256.05287 320.22252,256.84063 321.3111,257.84323 L 321.3111,257.84323 z M 309.70953,232.70651 C 309.70951,229.35498 309.02917,226.68376 307.66852,224.69284 C 306.30782,222.70199 304.39571,221.70655 301.93219,221.70651 C 300.58582,221.70655 299.43282,221.98585 298.47321,222.5444 C 297.51355,223.10304 296.73296,223.89796 296.13141,224.92917 C 295.55848,225.87452 295.15028,227.01319 294.9068,228.34518 C 294.6633,229.67725 294.54155,231.04509 294.54156,232.4487 C 294.54155,235.62841 295.23621,238.22086 296.62555,240.22604 C 298.01486,242.23127 299.81238,243.23388 302.01813,243.23386 C 304.48165,243.23388 306.37943,242.23843 307.71149,240.24753 C 309.04349,238.25667 309.70951,235.743 309.70953,232.70651 L 309.70953,232.70651 z M 317.95953,268.24167 C 317.9595,266.6375 317.5871,265.31979 316.84235,264.28854 C 316.09752,263.25729 314.96601,262.55547 313.44781,262.18307 C 312.6457,262.06849 310.99857,261.93959 308.50641,261.79636 C 306.0142,261.65313 303.12097,261.58151 299.82672,261.58151 C 296.73296,262.18307 294.53439,263.19284 293.23102,264.61081 C 291.92762,266.02877 291.27593,267.85494 291.27594,270.08932 C 291.27593,271.09192 291.49077,272.05155 291.92047,272.96823 C 292.35015,273.88489 293.09494,274.72994 294.15485,275.50339 C 295.15744,276.24817 296.50379,276.85689 298.19391,277.32956 C 299.88399,277.8022 301.94649,278.03853 304.38141,278.03854 C 308.59232,278.03853 311.90807,277.22928 314.32867,275.61081 C 316.74921,273.99231 317.9595,271.53593 317.95953,268.24167 L 317.95953,268.24167 z M 371.15485,240.61276 C 371.1548,243.59195 370.68215,246.52098 369.73688,249.39987 C 368.79152,252.27879 367.44517,254.72084 365.69781,256.72604 C 363.72122,259.01771 361.42955,260.72214 358.82281,261.83932 C 356.21601,262.95651 353.29414,263.5151 350.05719,263.51511 C 347.36446,263.5151 344.80066,263.00664 342.36578,261.98972 C 339.93087,260.97279 337.76812,259.49037 335.8775,257.54245 C 334.01552,255.62319 332.5331,253.28139 331.43024,250.51706 C 330.32737,247.75275 329.77594,244.65184 329.77594,241.21432 C 329.77594,234.59717 331.70237,229.18311 335.55524,224.97214 C 339.40809,220.76124 344.45691,218.65577 350.70172,218.65573 C 356.63138,218.65577 361.52265,220.65382 365.37555,224.64987 C 369.22837,228.646 371.1548,233.96696 371.15485,240.61276 L 371.15485,240.61276 z M 362.26031,240.6987 C 362.26028,238.55029 362.04544,236.28011 361.61578,233.88815 C 361.18606,231.49626 360.54153,229.46957 359.68219,227.80807 C 358.76549,226.03207 357.56237,224.60694 356.07281,223.53268 C 354.5832,222.45851 352.7642,221.9214 350.61578,221.92136 C 348.41003,221.9214 346.52657,222.46567 344.96539,223.55417 C 343.40418,224.64275 342.1366,226.13233 341.16266,228.02292 C 340.24598,229.77035 339.60145,231.76123 339.22906,233.99557 C 338.85666,236.22998 338.67046,238.39273 338.67047,240.48386 C 338.67046,243.23388 338.89246,245.77619 339.33649,248.11081 C 339.78048,250.44546 340.48947,252.52944 341.46344,254.36276 C 342.43738,256.1961 343.66199,257.63555 345.13727,258.68112 C 346.61251,259.7267 348.43868,260.24948 350.61578,260.24948 C 354.19649,260.24948 357.03242,258.51641 359.1236,255.05026 C 361.21471,251.58413 362.26028,246.80028 362.26031,240.6987 L 362.26031,240.6987 z M 424.09235,262.22604 L 403.33844,262.22604 L 403.33844,259.39011 C 403.99726,259.33282 404.72057,259.27553 405.50836,259.21823 C 406.29609,259.16094 406.94778,259.04636 407.46344,258.87448 C 408.26549,258.61667 408.85989,258.1655 409.24664,257.52097 C 409.63333,256.87644 409.82669,256.03855 409.82672,255.00729 L 409.82672,233.22214 C 409.82669,230.21436 409.1177,227.89405 407.69977,226.2612 C 406.28177,224.62843 404.55586,223.81202 402.52203,223.81198 C 401.00378,223.81202 399.61446,224.04835 398.35406,224.52097 C 397.09363,224.99366 395.97644,225.57374 395.0025,226.2612 C 394.05717,226.92009 393.30522,227.62907 392.74664,228.38815 C 392.18803,229.1473 391.77983,229.75602 391.52203,230.21432 L 391.52203,254.57761 C 391.52202,255.55157 391.72254,256.35365 392.1236,256.98386 C 392.52462,257.61407 393.12618,258.10105 393.92828,258.44479 C 394.52983,258.73126 395.18152,258.9461 395.88336,259.08932 C 396.58516,259.23256 397.30847,259.33282 398.05328,259.39011 L 398.05328,262.22604 L 377.29938,262.22604 L 377.29938,259.39011 C 377.95823,259.33282 378.63857,259.27553 379.34039,259.21823 C 380.04221,259.16094 380.65093,259.04636 381.16656,258.87448 C 381.96864,258.61667 382.56304,258.1655 382.94977,257.52097 C 383.33648,256.87644 383.52984,256.03855 383.52985,255.00729 L 383.52985,228.83932 C 383.52984,227.8654 383.32215,226.97022 382.9068,226.15378 C 382.49143,225.33741 381.91135,224.67139 381.16656,224.15573 C 380.62229,223.81202 379.97776,223.56137 379.23297,223.40378 C 378.48818,223.24626 377.68609,223.13884 376.82672,223.08151 L 376.82672,220.28854 L 390.92047,219.34323 L 391.52203,219.94479 L 391.52203,225.91745 L 391.73688,225.91745 C 392.42436,225.22999 393.28373,224.40642 394.315,223.44675 C 395.34623,222.48715 396.32019,221.70655 397.23688,221.10495 C 398.29675,220.41749 399.55716,219.84458 401.01813,219.3862 C 402.47904,218.92791 404.12617,218.69874 405.95953,218.6987 C 410.02721,218.69874 413.04218,219.96632 415.00446,222.50143 C 416.96665,225.03663 417.94777,228.40967 417.94781,232.62057 L 417.94781,254.66354 C 417.94777,255.66615 418.11965,256.4754 418.46344,257.09128 C 418.80715,257.70717 419.39438,258.18699 420.22516,258.53073 C 420.91261,258.81719 421.50701,259.01771 422.00836,259.13229 C 422.50962,259.24688 423.20428,259.33282 424.09235,259.39011 L 424.09235,262.22604 z M 470.67047,240.61276 C 470.67043,243.59195 470.19777,246.52098 469.2525,249.39987 C 468.30715,252.27879 466.9608,254.72084 465.21344,256.72604 C 463.23684,259.01771 460.94518,260.72214 458.33844,261.83932 C 455.73164,262.95651 452.80977,263.5151 449.57281,263.51511 C 446.88009,263.5151 444.31629,263.00664 441.88141,261.98972 C 439.4465,260.97279 437.28374,259.49037 435.39313,257.54245 C 433.53114,255.62319 432.04872,253.28139 430.94586,250.51706 C 429.84299,247.75275 429.29156,244.65184 429.29156,241.21432 C 429.29156,234.59717 431.21799,229.18311 435.07086,224.97214 C 438.92371,220.76124 443.97254,218.65577 450.21735,218.65573 C 456.147,218.65577 461.03827,220.65382 464.89117,224.64987 C 468.744,228.646 470.67043,233.96696 470.67047,240.61276 L 470.67047,240.61276 z M 461.77594,240.6987 C 461.7759,238.55029 461.56106,236.28011 461.13141,233.88815 C 460.70169,231.49626 460.05716,229.46957 459.19781,227.80807 C 458.28112,226.03207 457.07799,224.60694 455.58844,223.53268 C 454.09883,222.45851 452.27982,221.9214 450.13141,221.92136 C 447.92566,221.9214 446.0422,222.46567 444.48102,223.55417 C 442.9198,224.64275 441.65223,226.13233 440.67828,228.02292 C 439.7616,229.77035 439.11707,231.76123 438.74469,233.99557 C 438.37228,236.22998 438.18608,238.39273 438.1861,240.48386 C 438.18608,243.23388 438.40809,245.77619 438.85211,248.11081 C 439.29611,250.44546 440.00509,252.52944 440.97906,254.36276 C 441.95301,256.1961 443.17762,257.63555 444.65289,258.68112 C 446.12813,259.7267 447.9543,260.24948 450.13141,260.24948 C 453.71211,260.24948 456.54805,258.51641 458.63922,255.05026 C 460.73033,251.58413 461.7759,246.80028 461.77594,240.6987 L 461.77594,240.6987 z M 171.77985,313.31589 C 171.77981,314.77686 171.42174,316.07308 170.70563,317.20456 C 169.98945,318.3361 168.88658,318.90186 167.39703,318.90182 C 165.79284,318.90186 164.56823,318.48649 163.72321,317.65573 C 162.87813,316.82504 162.4556,315.90837 162.45563,314.90573 C 162.4556,314.27556 162.50573,313.70264 162.60602,313.18698 C 162.70625,312.67139 162.79935,312.15577 162.88531,311.64011 C 161.53894,311.64014 159.96342,312.18442 158.15875,313.27292 C 156.35404,314.3615 154.82149,315.90837 153.5611,317.91354 L 153.5611,342.57761 C 153.56108,343.58022 153.75444,344.39662 154.14117,345.02682 C 154.52787,345.65704 155.1366,346.12969 155.96735,346.44479 C 156.68347,346.73126 157.6073,346.9461 158.73883,347.08932 C 159.87032,347.23256 160.85144,347.33282 161.68219,347.39011 L 161.68219,350.22604 L 139.33844,350.22604 L 139.33844,347.39011 C 139.99729,347.33282 140.67763,347.27553 141.37946,347.21823 C 142.08127,347.16094 142.69,347.04636 143.20563,346.87448 C 144.0077,346.61667 144.6021,346.1655 144.98883,345.52097 C 145.37554,344.87644 145.5689,344.03855 145.56891,343.00729 L 145.56891,316.83932 C 145.5689,315.95134 145.36122,315.07764 144.94586,314.21823 C 144.53049,313.35889 143.95041,312.67139 143.20563,312.15573 C 142.66135,311.81202 142.01682,311.56137 141.27203,311.40378 C 140.52724,311.24626 139.72516,311.13884 138.86578,311.08151 L 138.86578,308.28854 L 152.95953,307.34323 L 153.5611,307.94479 L 153.5611,313.91745 L 153.77594,313.91745 C 155.55196,311.59718 157.52852,309.83546 159.70563,308.63229 C 161.88269,307.42921 163.87357,306.82765 165.67828,306.82761 C 167.48294,306.82765 168.95104,307.41489 170.08258,308.58932 C 171.21406,309.76384 171.77981,311.33936 171.77985,313.31589 L 171.77985,313.31589 z M 213.07281,340.25729 C 211.29673,343.63751 208.91913,346.33021 205.94,348.33542 C 202.96081,350.34063 199.53763,351.34323 195.67047,351.34323 C 192.2616,351.34323 189.27527,350.74167 186.71149,349.53854 C 184.14767,348.33542 182.03504,346.70261 180.3736,344.64011 C 178.71213,342.57761 177.4732,340.17137 176.6568,337.42136 C 175.84039,334.67137 175.43219,331.76382 175.43219,328.6987 C 175.43219,325.94872 175.86904,323.24886 176.74274,320.59909 C 177.61643,317.94938 178.89833,315.56462 180.58844,313.44479 C 182.22124,311.41098 184.24793,309.77101 186.66852,308.52487 C 189.08907,307.27882 191.80326,306.65577 194.8111,306.65573 C 197.90482,306.65577 200.55456,307.14275 202.76031,308.11667 C 204.96601,309.09067 206.75637,310.4227 208.13141,312.11276 C 209.44908,313.71697 210.4302,315.60759 211.07477,317.78464 C 211.71926,319.96175 212.04153,322.32503 212.04156,324.87448 L 212.04156,327.71042 L 183.98297,327.71042 C 183.98296,330.48908 184.24793,333.00992 184.77789,335.27292 C 185.30783,337.53595 186.14572,339.52684 187.29156,341.24557 C 188.40874,342.90704 189.86967,344.21759 191.67438,345.17722 C 193.47904,346.13686 195.62748,346.61667 198.11969,346.61667 C 200.66914,346.61667 202.86771,346.02227 204.71539,344.83347 C 206.56302,343.64467 208.34622,341.5034 210.065,338.40964 L 213.07281,340.25729 z M 203.57672,324.10104 C 203.57669,322.4969 203.44062,320.77816 203.16852,318.94479 C 202.89635,317.11149 202.4595,315.57894 201.85797,314.34714 C 201.19909,313.02947 200.29675,311.95525 199.15094,311.12448 C 198.00508,310.29379 196.52982,309.87843 194.72516,309.87839 C 191.71733,309.87843 189.21798,311.13168 187.22711,313.63815 C 185.23621,316.1447 184.15483,319.63232 183.98297,324.10104 L 203.57672,324.10104 z M 254.36578,345.84323 C 255.51158,346.93178 256.41392,348.16355 257.07281,349.53854 C 257.73163,350.91354 258.06105,352.61797 258.0611,354.65182 C 258.06105,356.68567 257.61704,358.59778 256.72906,360.38815 C 255.841,362.17851 254.49465,363.73254 252.69,365.05026 C 250.7707,366.3966 248.47903,367.44217 245.815,368.18698 C 243.15091,368.93175 239.85664,369.30415 235.93219,369.30417 C 229.51551,369.30415 224.71734,368.366 221.53766,366.48972 C 218.35797,364.6134 216.76813,361.87056 216.76813,358.2612 C 216.76813,355.33932 217.91396,353.03333 220.20563,351.34323 C 222.49729,349.65313 225.41916,348.73646 228.97125,348.59323 L 228.97125,347.99167 C 228.11186,347.73386 227.22384,347.41159 226.30719,347.02487 C 225.39051,346.63816 224.60275,346.18699 223.94391,345.67136 C 223.19911,345.0698 222.59755,344.36082 222.13922,343.5444 C 221.68088,342.728 221.45171,341.71824 221.45172,340.51511 C 221.45171,338.99689 221.98882,337.60041 223.06305,336.32565 C 224.13726,335.05093 225.76291,333.95523 227.94,333.03854 L 227.94,332.39401 C 225.18999,331.10497 223.05588,329.45067 221.53766,327.43112 C 220.01942,325.41162 219.26031,323.06982 219.26031,320.40573 C 219.26031,316.39535 220.75705,313.10108 223.75055,310.52292 C 226.74403,307.94484 230.5754,306.65577 235.24469,306.65573 C 236.53373,306.65577 237.81563,306.78468 239.09039,307.04245 C 240.36511,307.30031 241.66133,307.62973 242.97906,308.03073 L 257.76031,308.03073 L 257.76031,312.15573 L 247.79156,312.15573 L 247.79156,312.41354 C 248.85143,313.64535 249.63919,315.00603 250.15485,316.49557 C 250.67044,317.98519 250.92825,319.44613 250.92828,320.87839 C 250.92825,324.60237 249.41718,327.75341 246.39508,330.33151 C 243.37292,332.90965 239.85664,334.19872 235.84625,334.1987 L 230.64703,334.1987 C 229.98816,334.42788 229.30067,334.84325 228.58453,335.44479 C 227.86837,336.04637 227.5103,336.86278 227.51031,337.89401 C 227.5103,338.95392 227.81108,339.76316 228.41266,340.32175 C 229.01421,340.88035 229.74468,341.25991 230.60406,341.46042 C 231.43478,341.68959 232.40157,341.83282 233.50446,341.89011 C 234.6073,341.94741 235.74597,341.99037 236.92047,342.01901 C 238.18086,342.04767 239.90677,342.1336 242.09821,342.27682 C 244.28958,342.42006 245.84362,342.506 246.76031,342.53464 C 248.07799,342.59194 249.40286,342.90704 250.73492,343.47995 C 252.06692,344.05287 253.2772,344.84063 254.36578,345.84323 L 254.36578,345.84323 z M 242.76422,320.70651 C 242.76419,317.35498 242.08386,314.68376 240.72321,312.69284 C 239.3625,310.70199 237.4504,309.70655 234.98688,309.70651 C 233.6405,309.70655 232.48751,309.98585 231.52789,310.5444 C 230.56824,311.10304 229.78764,311.89796 229.1861,312.92917 C 228.61317,313.87452 228.20496,315.01319 227.96149,316.34518 C 227.71798,317.67725 227.59624,319.04509 227.59625,320.4487 C 227.59624,323.62841 228.2909,326.22086 229.68024,328.22604 C 231.06954,330.23127 232.86707,331.23388 235.07281,331.23386 C 237.53633,331.23388 239.43412,330.23843 240.76617,328.24753 C 242.09818,326.25667 242.76419,323.743 242.76422,320.70651 L 242.76422,320.70651 z M 251.01422,356.24167 C 251.01419,354.6375 250.64179,353.31979 249.89703,352.28854 C 249.15221,351.25729 248.0207,350.55547 246.5025,350.18307 C 245.70039,350.06849 244.05325,349.93959 241.5611,349.79636 C 239.06888,349.65313 236.17566,349.58151 232.88141,349.58151 C 229.78764,350.18307 227.58908,351.19284 226.28571,352.61081 C 224.98231,354.02877 224.33062,355.85494 224.33063,358.08932 C 224.33062,359.09192 224.54546,360.05155 224.97516,360.96823 C 225.40484,361.88489 226.14963,362.72994 227.20953,363.50339 C 228.21212,364.24817 229.55848,364.85689 231.2486,365.32956 C 232.93868,365.8022 235.00118,366.03853 237.4361,366.03854 C 241.64701,366.03853 244.96276,365.22928 247.38336,363.61081 C 249.8039,361.99231 251.01419,359.53593 251.01422,356.24167 L 251.01422,356.24167 z M 308.33453,349.45261 L 294.54156,350.39792 L 293.89703,349.79636 L 293.89703,344.42526 L 293.63922,344.42526 C 292.95169,345.14141 292.17825,345.90769 291.31891,346.72409 C 290.4595,347.5405 289.47122,348.27813 288.35406,348.93698 C 287.06498,349.71042 285.81888,350.29766 284.61578,350.6987 C 283.41264,351.09974 281.70821,351.30026 279.5025,351.30026 C 275.74988,351.30026 272.89246,350.07565 270.93024,347.62643 C 268.96799,345.17722 267.98687,341.61798 267.98688,336.9487 L 267.98688,316.66745 C 267.98687,315.63623 267.79351,314.7697 267.4068,314.06784 C 267.02007,313.36605 266.45432,312.75733 265.70953,312.24167 C 265.1939,311.89796 264.54937,311.64731 263.77594,311.48972 C 263.0025,311.3322 262.18609,311.22478 261.32672,311.16745 L 261.32672,308.37448 L 275.46344,307.34323 L 276.10797,307.94479 L 276.10797,337.37839 C 276.10795,340.4435 276.79545,342.74949 278.17047,344.29636 C 279.54545,345.84324 281.19259,346.61667 283.11188,346.61667 C 284.68737,346.61667 286.09102,346.37318 287.32281,345.8862 C 288.55456,345.39923 289.58581,344.82631 290.41656,344.16745 C 291.18997,343.56589 291.87031,342.92852 292.45758,342.25534 C 293.04479,341.58217 293.49596,340.95913 293.8111,340.3862 L 293.8111,316.36667 C 293.81106,315.42139 293.61054,314.5835 293.20953,313.853 C 292.80846,313.12257 292.24987,312.49952 291.53375,311.98386 C 291.0181,311.64014 290.25182,311.43246 289.23492,311.36081 C 288.21797,311.28923 287.0793,311.22478 285.81891,311.16745 L 285.81891,308.37448 L 301.20172,307.34323 L 301.84625,307.94479 L 301.84625,341.58932 C 301.84621,342.56329 302.04673,343.39402 302.44781,344.08151 C 302.84881,344.76902 303.40741,345.35626 304.1236,345.84323 C 304.63918,346.15834 305.25506,346.36602 305.97125,346.46628 C 306.68735,346.56654 307.47511,346.631 308.33453,346.65964 L 308.33453,349.45261 z M 333.47125,350.22604 L 312.80328,350.22604 L 312.80328,347.39011 C 313.46213,347.33282 314.16396,347.26836 314.90875,347.19675 C 315.65354,347.12514 316.26942,347.01771 316.75641,346.87448 C 317.55848,346.61667 318.16005,346.1655 318.5611,345.52097 C 318.96213,344.87644 319.16265,344.03855 319.16266,343.00729 L 319.16266,293.93698 C 319.16265,292.90579 318.94065,291.93899 318.49664,291.03659 C 318.05263,290.13431 317.47255,289.42532 316.75641,288.90964 C 316.24078,288.56595 315.29547,288.25085 313.92047,287.96432 C 312.54547,287.67793 311.44261,287.50605 310.61188,287.4487 L 310.61188,284.6987 L 326.55328,283.71042 L 327.15485,284.35495 L 327.15485,342.49167 C 327.15483,343.49428 327.34103,344.31785 327.71344,344.96237 C 328.08582,345.60691 328.68738,346.10105 329.51813,346.44479 C 330.14832,346.73126 330.77136,346.9461 331.38727,347.08932 C 332.00313,347.23256 332.69779,347.33282 333.47125,347.39011 L 333.47125,350.22604 z M 379.01813,349.45261 C 377.67173,349.93959 376.49009,350.33347 375.47321,350.63425 C 374.45624,350.93503 373.30325,351.08542 372.01422,351.08542 C 369.77981,351.08542 367.99661,350.56263 366.66461,349.51706 C 365.33255,348.47149 364.48034,346.9461 364.10797,344.94089 L 363.85016,344.94089 C 361.98815,347.00339 359.99011,348.57891 357.85602,349.66745 C 355.72188,350.75599 353.15092,351.30026 350.14313,351.30026 C 346.96343,351.30026 344.3495,350.3263 342.30133,348.37839 C 340.25315,346.43047 339.22906,343.881 339.22906,340.72995 C 339.22906,339.09715 339.45823,337.63621 339.91656,336.34714 C 340.37489,335.05809 341.06239,333.89794 341.97906,332.86667 C 342.6952,332.00731 343.64052,331.24104 344.815,330.56784 C 345.98947,329.89468 347.09233,329.35757 348.1236,328.95651 C 349.41265,328.46956 352.02657,327.56721 355.96539,326.24948 C 359.90417,324.9318 362.56107,323.90055 363.9361,323.15573 L 363.9361,318.90182 C 363.93607,318.52946 363.85729,317.81332 363.69977,316.75339 C 363.54219,315.69353 363.2056,314.69092 362.69,313.74557 C 362.11706,312.68572 361.30782,311.76189 360.26227,310.97409 C 359.21667,310.18637 357.73425,309.79249 355.815,309.79245 C 354.49728,309.79249 353.27267,310.0145 352.14117,310.45847 C 351.00965,310.90252 350.21473,311.36801 349.75641,311.85495 C 349.75639,312.4279 349.89246,313.27296 350.16461,314.39011 C 350.43673,315.50733 350.5728,316.53858 350.57281,317.48386 C 350.5728,318.48649 350.12163,319.40316 349.2193,320.23386 C 348.31694,321.06461 347.06369,321.47998 345.45953,321.47995 C 344.02723,321.47998 342.9745,320.97152 342.30133,319.95456 C 341.62815,318.93766 341.29156,317.79899 341.29156,316.53854 C 341.29156,315.22087 341.75705,313.96045 342.68805,312.75729 C 343.61903,311.55421 344.82932,310.47999 346.31891,309.53464 C 347.60796,308.7326 349.16916,308.05226 351.0025,307.49362 C 352.83582,306.93507 354.62618,306.65577 356.3736,306.65573 C 358.77982,306.65577 360.87813,306.82049 362.66852,307.14987 C 364.45885,307.47934 366.0845,308.18833 367.54547,309.27682 C 369.00638,310.33676 370.1164,311.77621 370.87555,313.59518 C 371.63463,315.41423 372.01418,317.75602 372.01422,320.62057 C 372.01418,324.71695 371.97122,328.34781 371.88531,331.51315 C 371.79934,334.67853 371.75637,338.13751 371.75641,341.89011 C 371.75637,343.0073 371.94973,343.89532 372.33649,344.55417 C 372.72317,345.21303 373.31757,345.77162 374.11969,346.22995 C 374.54934,346.48777 375.22968,346.631 376.16071,346.65964 C 377.09165,346.68829 378.04413,346.70261 379.01813,346.70261 L 379.01813,349.45261 z M 364.02203,326.76511 C 361.58711,327.48127 359.453,328.1831 357.61969,328.87057 C 355.78634,329.5581 354.08191,330.41747 352.50641,331.4487 C 351.0741,332.42268 349.94259,333.57567 349.11188,334.90768 C 348.28114,336.23973 347.86577,337.82241 347.86578,339.65573 C 347.86577,342.03334 348.48882,343.78074 349.73492,344.89792 C 350.981,346.01511 352.56368,346.5737 354.48297,346.5737 C 356.5168,346.5737 358.30717,346.07956 359.85406,345.09128 C 361.40091,344.103 362.7043,342.93569 363.76422,341.58932 L 364.02203,326.76511 z M 415.67047,313.31589 C 415.67044,314.77686 415.31236,316.07308 414.59625,317.20456 C 413.88007,318.3361 412.77721,318.90186 411.28766,318.90182 C 409.68346,318.90186 408.45885,318.48649 407.61383,317.65573 C 406.76875,316.82504 406.34623,315.90837 406.34625,314.90573 C 406.34623,314.27556 406.39636,313.70264 406.49664,313.18698 C 406.59688,312.67139 406.68998,312.15577 406.77594,311.64011 C 405.42956,311.64014 403.85404,312.18442 402.04938,313.27292 C 400.24467,314.3615 398.71212,315.90837 397.45172,317.91354 L 397.45172,342.57761 C 397.4517,343.58022 397.64506,344.39662 398.0318,345.02682 C 398.4185,345.65704 399.02722,346.12969 399.85797,346.44479 C 400.5741,346.73126 401.49792,346.9461 402.62946,347.08932 C 403.76094,347.23256 404.74206,347.33282 405.57281,347.39011 L 405.57281,350.22604 L 383.22906,350.22604 L 383.22906,347.39011 C 383.88792,347.33282 384.56825,347.27553 385.27008,347.21823 C 385.9719,347.16094 386.58062,347.04636 387.09625,346.87448 C 387.89833,346.61667 388.49273,346.1655 388.87946,345.52097 C 389.26617,344.87644 389.45952,344.03855 389.45953,343.00729 L 389.45953,316.83932 C 389.45952,315.95134 389.25184,315.07764 388.83649,314.21823 C 388.42111,313.35889 387.84104,312.67139 387.09625,312.15573 C 386.55198,311.81202 385.90744,311.56137 385.16266,311.40378 C 384.41786,311.24626 383.61578,311.13884 382.75641,311.08151 L 382.75641,308.28854 L 396.85016,307.34323 L 397.45172,307.94479 L 397.45172,313.91745 L 397.66656,313.91745 C 399.44259,311.59718 401.41915,309.83546 403.59625,308.63229 C 405.77331,307.42921 407.76419,306.82765 409.56891,306.82761 C 411.37356,306.82765 412.84166,307.41489 413.97321,308.58932 C 415.10468,309.76384 415.67044,311.33936 415.67047,313.31589 L 415.67047,313.31589 z"
       id="text2396" />
  </g>
  <g
     inkscape:groupmode="layer"
     id="layer2"
     inkscape:label="Octágono">
    <path
       sodipodi:type="star"
       style="opacity:1;fill:#afc6e9;fill-opacity:1;fill-rule:evenodd;stroke:#000000;stroke-width:4;stroke-linecap:butt;stroke-linejoin:miter;marker:none;marker-start:none;marker-mid:none;marker-end:none;stroke-miterlimit:4;stroke-dasharray:none;stroke-dashoffset:0;stroke-opacity:1;visibility:visible;display:inline;overflow:visible;enable-background:accumulate"
       id="path2433"
       sodipodi:sides="6"
       sodipodi:cx="220"
       sodipodi:cy="400"
       sodipodi:r1="196.97716"
       sodipodi:r2="181.98315"
       sodipodi:arg1="1.152572"
       sodipodi:arg2="1.6761708"
       inkscape:flatsided="true"
       inkscape:rounded="0"
       inkscape:randomized="0"
       d="M 300,580 L 104.11543,559.28203 L 24.115426,379.28203 L 140,220 L 335.88457,240.71797 L 415.88457,420.71797 L 300,580 z"
       transform="matrix(0.9943671,-0.1059903,0.1059903,0.9943671,-41.156882,25.57099)" />
    <path
       style="opacity:1;fill:none;fill-opacity:1;fill-rule:evenodd;stroke:#000000;stroke-width:1.50000000000000000;stroke-linecap:butt;stroke-linejoin:miter;marker:none;marker-start:none;marker-mid:none;marker-end:none;stroke-miterlimit:4;stroke-dasharray:4.50000000000000000, 4.50000000000000000;stroke-dashoffset:0;stroke-opacity:1;visibility:visible;display:inline;overflow:visible;enable-background:accumulate;color:#000000"
       d="M 316.8707,229.41658 L 122.89245,570.56406"
       id="path3370"
       sodipodi:nodetypes="cc" />
    <path
       style="opacity:1;fill:none;fill-opacity:1;fill-rule:evenodd;stroke:#000000;stroke-width:1.50000000000000000;stroke-linecap:butt;stroke-linejoin:miter;marker:none;marker-start:none;marker-mid:none;marker-end:none;stroke-miterlimit:4;stroke-dasharray:4.50000000000000000, 4.50000000000000000;stroke-dashoffset:0;stroke-opacity:1;visibility:visible;display:inline;overflow:visible;enable-background:accumulate;color:#000000"
       d="M 121.20389,229.57961 C 318.77253,570.38281 318.77253,570.38281 318.77253,570.38281"
       id="path3219"
       sodipodi:nodetypes="cc" />
    <path
       style="opacity:1;fill:none;fill-opacity:1;fill-rule:evenodd;stroke:#000000;stroke-width:1.50000000000000000;stroke-linecap:butt;stroke-linejoin:miter;marker:none;marker-start:none;marker-mid:none;marker-end:none;stroke-miterlimit:4;stroke-dasharray:4.50000000000000000, 4.50000000000000000;stroke-dashoffset:0;stroke-opacity:1;visibility:visible;display:inline;overflow:visible;enable-background:accumulate;color:#000000"
       d="M 23.10438,400.04067 L 416.58216,400.50978"
       id="path3221" />
  </g>
</svg>
